<svg version="1.2" baseProfile="tiny-ps" xmlns="http://www.w3.org/2000/svg" viewBox="0 0 1057 372" width="1057" height="372">
	<title>New Project</title>
	<style>
		tspan { white-space:pre }
	</style>
	<path id="SutriptimNath " fill="#b1d4e0" aria-label="SutriptimNath"  d="M375.45 141C369.15 146.55 358.5 158.85 358.5 158.85L369.9 149.55C373.5 146.4 381 139.35 389.85 130.2C394.2 130.05 398.7 129.9 403.05 129.9C410.85 129.9 418.65 130.2 425.85 131.1C463.5 135.6 471.6 154.95 471.6 161.4C471.6 161.85 471.45 162.15 471.45 162.45L471.45 163.35C471.45 165.6 472.65 166.35 474.15 166.35C475.65 166.35 477.45 165.6 478.65 164.7C478.95 164.4 479.25 163.65 479.25 162.6C479.25 156.3 471.9 138.3 449.7 132.75C435.9 129.3 417.6 126.6 395.1 126.6L393.3 126.6C411 108 432.9 82.5 442.8 64.05C446.55 56.85 448.5 50.4 448.5 45C448.5 28.35 431.25 19.65 400.35 17.1C397.2 16.8 393.75 16.8 389.85 16.8C341.85 16.8 237.3 33.75 196.2 45.15C174.45 51 51.75 78.75 47.25 99.45C47.1 100.35 46.95 101.25 46.95 102C46.95 104.85 48.45 106.8 52.8 106.8C54.45 106.8 56.55 106.5 59.1 105.9C70.05 103.5 125.85 101.85 125.85 101.85C162.6 96.45 192.6 94.2 217.2 94.2C306.15 94.2 323.1 123.15 326.7 132.45C326.7 132.45 299.4 135.75 240.75 155.25C182.1 174.75 113.25 210.6 52.2 263.55C22.05 289.65 4.35 316.35 4.35 335.7C4.35 352.95 18.3 364.35 50.4 364.35C55.65 364.35 61.35 364.05 67.65 363.45C154.65 354.45 261.3 268.35 298.95 223.2C329.55 186.6 335.55 164.25 335.55 147.6C335.55 143.7 335.25 140.1 334.8 136.65C343.2 135 363.15 131.85 384.75 130.5C379.2 136.95 375.45 141 375.45 141ZM388.05 126.75C372 127.05 353.85 128.85 334.05 132.6C330.3 117 316.05 107.1 295.5 98.55C266.55 86.55 204.15 84.3 161.55 84.3C137.7 84.3 120 85.05 117.75 85.2L117.45 85.2C117.45 83.85 208.05 55.95 304.65 33.45C338.25 25.65 363.6 22.35 382.5 22.35C419.7 22.35 432.15 35.1 433.8 51L433.8 52.35C433.8 69.9 405.15 106.5 388.05 126.75ZM326.1 138.45C326.4 139.65 326.55 141 326.55 142.35C326.55 193.65 138.45 348 53.1 348C40.2 348 29.7 344.55 22.5 336.6C20.7 334.65 19.95 332.1 19.95 328.8C19.95 311.7 43.05 277.8 84.75 246.15C134.4 208.2 218.85 153.45 326.1 138.45ZM353.25 166.65C353.25 166.65 336.15 188.1 336.15 192.9L336.15 193.35C336.75 195 337.65 195.9 339.15 195.9C341.1 195.9 343.8 194.55 347.7 192.15C351.9 189.6 358.8 185.25 363.6 182.1C361.2 185.7 358.95 189.3 358.95 191.1C358.95 191.4 359.1 191.55 359.1 191.7C359.85 193.65 361.05 195 363.15 195C364.95 195 367.35 193.95 370.95 191.25C378.6 185.55 390.9 179.7 390.9 179.7L389.25 179.7C389.25 179.7 372 188.25 370.65 188.4C370.5 188.4 370.5 188.4 370.5 188.25C370.5 186.75 378.75 175.95 379.65 175.95L379.8 175.95C379.95 175.95 379.95 175.8 379.95 175.65C379.95 175.2 378.9 173.7 377.1 172.5C376.05 171.75 374.85 171.45 373.95 171.45C372.9 171.45 372 171.75 371.4 172.35C371.4 172.35 369.15 174.75 366.75 178.05C360.15 182.4 350.55 188.4 349.65 188.4L349.65 188.25C349.65 186.9 360 172.95 361.2 172.95C362.55 173.1 363 173.55 363 173.55C363 173.55 362.85 169.05 359.7 166.65C358.35 165.6 357.15 165.3 356.1 165.3C354.9 165.3 353.85 165.9 353.25 166.65ZM434.7 116.4C434.7 116.4 429.9 116.4 424.65 123.3C419.4 130.05 418.2 131.1 415.35 135L411 141C409.5 141 408.3 141.15 407.4 141.15L394.35 141.15C383.55 141.15 371.7 141.3 369.75 143.1C368.7 144 368.4 145.65 368.4 147.3C368.4 150.15 369.3 153 369.3 153C369.3 153 369.75 153.3 370.35 153.3C370.95 153.3 371.85 153 372.9 151.8C374.85 149.55 381.15 147.75 384.3 147.45C387.3 147.15 390.9 146.25 398.55 145.95C400.2 145.95 403.5 145.8 407.7 145.5C397.8 159.15 389.4 171 378 187.35C376.05 190.35 371.85 198.45 371.85 200.4L371.85 200.55C372.3 203.7 371.55 207.45 376.2 207.45C377.1 207.45 378 207.45 379.2 207.15C394.35 204.15 414.6 186.45 421.8 179.85C421.8 179.85 421.5 179.4 421.05 179.4C420.9 179.4 420.75 179.4 420.6 179.55C419.85 180 410.4 187.05 398.25 194.1C390.75 198.6 384.45 202.2 382.35 202.2C381.9 202.2 381.75 202.05 381.75 201.6C381.75 201.15 381.9 200.55 382.5 199.65C386.4 193.2 409.35 161.4 422.7 144.45C434.1 143.55 446.7 142.8 454.35 142.8C456.15 142.8 457.5 142.8 458.7 142.95C469.8 143.85 473.1 149.1 473.1 149.1L473.7 149.1C474.3 149.1 475.35 149.1 476.85 148.5C478.95 147.6 484.05 141.15 484.05 138.15C484.05 137.55 483.75 137.1 483.45 136.8C483.15 136.65 481.95 136.5 480 136.5C470.7 136.5 444.75 138.6 426.3 139.95C428.4 137.4 430.2 135.45 431.25 134.4C437.4 129 439.2 129.9 442.35 127.35C443.1 126.75 443.55 125.55 443.55 124.2C443.55 120.75 440.85 116.25 436.05 116.25C435.6 116.25 435.15 116.25 434.7 116.4ZM422.25 173.7C418.65 178.8 411.6 189.6 411.6 194.4C411.6 195 411.75 195.45 411.9 195.75C412.8 197.7 414.9 198.6 417 198.6C418.95 198.6 420.9 198 422.4 196.95C425.55 194.7 443.85 172.2 451.5 169.5C453.45 168.75 455.25 168.6 456.75 168.6C460.5 168.6 463.35 169.8 465.9 169.8C466.65 169.8 467.4 169.65 468.15 169.35C470.25 168.45 471.6 168.3 472.65 168.3C473.4 168.3 473.85 168.45 473.85 168.45C473.85 168.45 473.1 167.4 471 167.4C470.4 167.4 469.65 167.55 468.6 167.85C467.4 168.15 466.65 168.3 465.9 168.3C464.25 168.3 463.5 167.55 461.4 166.8C459.75 166.35 457.65 165.3 454.95 165.3C453 165.3 450.6 165.9 447.75 167.55C442.35 170.85 435.6 177.6 434.85 177.6C434.85 177 444.75 165.9 444.75 163.8L444.75 163.65C443.55 160.65 438.9 157.95 436.05 157.95C435.45 157.95 434.85 158.1 434.4 158.4C430.2 160.95 426.3 168 422.25 173.7ZM494.25 150.15C492.45 150.15 490.95 151.5 490.95 153.45C490.95 155.25 492.45 156.75 494.25 156.75C496.05 156.75 497.55 155.25 497.55 153.45C497.55 151.5 496.05 150.15 494.25 150.15ZM482.1 164.4C482.1 164.4 454.95 196.5 454.95 205.8C454.95 206.55 455.1 207.15 455.55 207.6C456 208.05 456.6 208.2 457.35 208.2C466.8 208.2 500.25 179.1 500.25 179.1L498.3 179.55C498.3 179.55 469.95 199.05 467.85 199.8C467.7 199.8 467.7 199.8 467.7 199.65C467.7 198 487.5 174 489 172.35C490.65 170.55 491.85 169.5 491.85 169.5C491.85 169.5 489.6 163.5 485.1 163.5C484.2 163.5 483.15 163.8 482.1 164.4ZM507.6 162.3C507.6 162.3 485.25 197.4 478.95 205.8C472.5 214.35 470.7 220.8 468.3 223.2C468 223.5 467.85 223.95 467.85 224.55C467.85 227.1 472.05 231.45 475.65 231.45L476.4 231.45C480.75 230.55 481.05 224.4 492.15 208.2C503.4 191.85 512.85 180.6 519 175.35C522.9 172.05 526.2 170.25 528.3 170.25C529.65 170.25 530.55 171 530.7 172.5L530.7 172.65C530.7 176.55 523.05 182.55 518.55 185.7C517.05 186.6 515.85 187.05 515.1 187.05C513.45 187.05 513.15 185.55 513.15 185.55C513.15 185.55 512.85 186.45 512.85 187.65C512.85 189.15 513.3 191.1 515.85 192.15C516.9 192.6 518.25 192.9 519.9 192.9C525 192.9 532.2 189.9 537 180.6C538.5 177.6 539.25 174.9 539.25 172.5C539.25 167.25 535.95 163.95 531.9 163.95C530.25 163.95 528.6 164.4 526.95 165.45C518.85 170.4 509.7 181.05 509.7 181.05C509.7 181.05 516 168.9 518.25 166.65C520.65 164.4 520.95 164.4 520.95 164.4C520.95 164.4 516.3 160.35 511.95 160.35C510.45 160.35 508.8 160.95 507.6 162.3ZM597 116.4C597 116.4 592.2 116.4 586.95 123.3C581.7 130.05 580.5 131.1 577.65 135L573.3 141C571.8 141 570.6 141.15 569.7 141.15L556.65 141.15C545.85 141.15 534 141.3 532.05 143.1C531 144 530.7 145.65 530.7 147.3C530.7 150.15 531.6 153 531.6 153C531.6 153 532.05 153.3 532.65 153.3C533.25 153.3 534.15 153 535.2 151.8C537.15 149.55 543.45 147.75 546.6 147.45C549.6 147.15 553.2 146.25 560.85 145.95C562.5 145.95 565.8 145.8 570 145.5C560.1 159.15 551.7 171 540.3 187.35C538.35 190.35 534.15 198.45 534.15 200.4L534.15 200.55C534.6 203.7 533.85 207.45 538.5 207.45C539.4 207.45 540.3 207.45 541.5 207.15C556.65 204.15 576.9 186.45 584.1 179.85C584.1 179.85 583.8 179.4 583.35 179.4C583.2 179.4 583.05 179.4 582.9 179.55C582.15 180 572.7 187.05 560.55 194.1C553.05 198.6 546.75 202.2 544.65 202.2C544.2 202.2 544.05 202.05 544.05 201.6C544.05 201.15 544.2 200.55 544.8 199.65C548.7 193.2 571.65 161.4 585 144.45C596.4 143.55 609 142.8 616.65 142.8C618.45 142.8 619.8 142.8 621 142.95C632.1 143.85 635.4 149.1 635.4 149.1L636 149.1C636.6 149.1 637.65 149.1 639.15 148.5C641.25 147.6 646.35 141.15 646.35 138.15C646.35 137.55 646.05 137.1 645.75 136.8C645.45 136.65 644.25 136.5 642.3 136.5C633 136.5 607.05 138.6 588.6 139.95C590.7 137.4 592.5 135.45 593.55 134.4C599.7 129 601.5 129.9 604.65 127.35C605.4 126.75 605.85 125.55 605.85 124.2C605.85 120.75 603.15 116.25 598.35 116.25C597.9 116.25 597.45 116.25 597 116.4ZM605.1 150.15C603.3 150.15 601.8 151.5 601.8 153.45C601.8 155.25 603.3 156.75 605.1 156.75C606.9 156.75 608.4 155.25 608.4 153.45C608.4 151.5 606.9 150.15 605.1 150.15ZM592.95 164.4C592.95 164.4 565.8 196.5 565.8 205.8C565.8 206.55 565.95 207.15 566.4 207.6C566.85 208.05 567.45 208.2 568.2 208.2C577.65 208.2 611.1 179.1 611.1 179.1L609.15 179.55C609.15 179.55 580.8 199.05 578.7 199.8C578.55 199.8 578.55 199.8 578.55 199.65C578.55 198 598.35 174 599.85 172.35C601.5 170.55 602.7 169.5 602.7 169.5C602.7 169.5 600.45 163.5 595.95 163.5C595.05 163.5 594 163.8 592.95 164.4ZM619.35 164.4C619.35 164.4 600.15 187.65 600.15 192.45C600.15 192.75 600.15 192.9 600.3 193.05C601.65 194.7 602.85 195.75 604.5 195.75C605.85 195.75 607.2 195.15 609.15 193.8C613.5 190.8 631.35 174.15 633.6 173.4L633.75 173.4C633.9 173.4 633.9 173.4 633.9 173.55C633.9 174.75 627.3 183.6 627.3 187.5C627.3 188.1 627.6 188.7 628.05 189C628.65 189.3 629.4 189.6 630.15 189.6C633.6 189.6 638.25 185.85 642.15 182.55C643.8 181.2 644.85 180.6 645.45 180.6C646.2 180.6 646.35 181.5 646.35 182.7L646.35 184.8C646.5 186.45 647.1 187.35 648.3 187.35C649.5 187.35 651 186.6 652.95 185.25C657.15 182.25 664.05 179.25 664.05 179.25L662.4 178.8C662.4 178.8 655.05 182.25 653.4 183.3C653.1 183.45 652.8 183.6 652.65 183.6C652.05 183.6 651.75 183 651.75 181.8C651.75 181.05 651.9 180 652.05 178.8C652.2 178.2 652.2 177.6 652.2 177.15C652.2 174.75 650.85 174.3 649.5 173.85L649.35 173.85C647.55 173.85 639.6 182.85 636.45 183.45L636.3 183.45C636 183.45 635.85 183.3 635.85 183C635.85 180.75 643.65 170.85 643.65 167.7C643.65 167.4 643.65 167.25 643.5 167.1C642.3 165.6 640.95 164.85 639.45 164.85C638.7 164.85 637.95 165.15 637.2 165.45C635.25 166.35 623.4 178.8 620.4 179.55L620.25 179.55C619.95 179.55 619.95 179.55 619.95 179.25C619.95 177.45 629.85 166.35 631.2 165.75C631.65 165.6 631.8 165.3 631.8 164.85C631.8 163.65 630 161.7 627.45 161.25C626.7 161.1 626.1 161.1 625.35 161.1C623.1 161.1 621.15 162 619.35 164.4ZM488.85 162.15C488.85 162.15 499.5 97.2 606.3 47.4C643.95 29.85 673.8 21.45 695.7 21.45C724.35 21.45 739.05 35.7 739.05 61.95C739.05 72.45 736.65 84.75 731.85 99C706.05 175.5 646.35 283.2 632.1 298.35C625.8 305.1 623.1 310.95 623.1 315.6C623.1 321.45 627.3 325.35 633.9 326.85C634.65 327 635.4 327.15 636 327.15C646.8 327.15 653.55 308.1 667.35 281.1C682.05 252.15 681.15 256.95 697.95 237C714.9 216.9 853.35 74.1 874.8 63C876.75 61.95 878.4 61.5 879.6 61.5C882.15 61.5 883.2 63.45 883.2 67.2C883.2 81.15 866.55 119.1 849.3 157.35C828 204.75 793.05 275.85 793.05 307.65C793.05 309 793.05 310.35 793.2 311.7C794.4 321.9 798.15 325.5 802.05 325.5C807.75 325.5 814.2 317.55 814.2 312.15C814.2 310.8 813.75 309.6 812.85 308.7C809.4 305.4 806.85 301.65 806.85 294.9C806.85 288 809.55 277.65 816.75 261C830.25 229.8 907.95 82.2 907.95 52.95C907.95 51.3 907.65 50.1 907.2 49.2C903.15 42.6 898.65 39.15 892.8 39.15C881.4 39.15 865.35 52.05 839.55 78.45C800.4 118.65 689.55 237 689.55 237C689.55 237 760.05 116.25 760.05 54.6C760.05 46.05 758.55 38.55 755.4 32.7C746.25 16.05 729 9.6 708.45 9.6C670.65 9.6 621.45 30.9 589.5 48.75C540.6 76.05 488.85 127.5 488.85 160.95ZM904.35 176.4C905.55 177 906.9 178.05 907.95 180.45C899.55 187.05 890.85 193.65 889.5 193.65L889.35 193.65C889.05 193.5 888.9 193.2 888.9 192.6C888.9 190.2 891.6 184.5 896.1 179.55C898.5 177 900.75 176.25 902.7 176.25C903.3 176.25 903.9 176.25 904.35 176.4ZM929.7 173.4L929.7 172.35C929.7 168.75 927.75 165.9 925.05 165.9C923.4 165.9 921.6 166.95 919.95 169.5C919.95 169.5 918.9 171 917.25 173.25C914.7 175.2 911.85 177.45 908.85 179.7C907.5 175.65 905.1 170.7 901.65 168.45L901.5 168.3C900 167.4 898.2 166.8 895.95 166.8C894.6 166.8 893.25 166.95 891.6 167.4C881.25 170.4 874.05 186.45 874.05 193.2L874.05 193.5C874.05 199.65 878.55 201.75 881.7 201.75L882.6 201.75C885.9 201.15 897.9 192 905.4 185.85L909 183C909.15 183.45 909.3 183.9 909.45 184.5C900.9 197.1 890.1 214.2 890.1 220.95C890.1 222 890.4 222.9 891 223.35C891.6 223.65 892.2 223.8 892.95 223.8C905.7 223.8 947.85 179.55 947.85 179.4L946.35 178.8C939 184.95 924.15 201.15 904.65 212.85C908.4 202.8 929.7 173.55 929.7 173.4ZM910.05 183.6C909.9 183.3 909.9 182.85 909.75 182.4L912.15 180.45C911.55 181.5 910.8 182.55 910.05 183.6ZM990 116.4C990 116.4 985.2 116.4 979.95 123.3C974.7 130.05 973.5 131.1 970.65 135L966.3 141C964.8 141 963.6 141.15 962.7 141.15L949.65 141.15C938.85 141.15 927 141.3 925.05 143.1C924 144 923.7 145.65 923.7 147.3C923.7 150.15 924.6 153 924.6 153C924.6 153 925.05 153.3 925.65 153.3C926.25 153.3 927.15 153 928.2 151.8C930.15 149.55 936.45 147.75 939.6 147.45C942.6 147.15 946.2 146.25 953.85 145.95C955.5 145.95 958.8 145.8 963 145.5C953.1 159.15 944.7 171 933.3 187.35C931.35 190.35 927.15 198.45 927.15 200.4L927.15 200.55C927.6 203.7 926.85 207.45 931.5 207.45C932.4 207.45 933.3 207.45 934.5 207.15C949.65 204.15 969.9 186.45 977.1 179.85C977.1 179.85 976.8 179.4 976.35 179.4C976.2 179.4 976.05 179.4 975.9 179.55C975.15 180 965.7 187.05 953.55 194.1C946.05 198.6 939.75 202.2 937.65 202.2C937.2 202.2 937.05 202.05 937.05 201.6C937.05 201.15 937.2 200.55 937.8 199.65C941.7 193.2 964.65 161.4 978 144.45C989.4 143.55 1002 142.8 1009.65 142.8C1011.45 142.8 1012.8 142.8 1014 142.95C1025.1 143.85 1028.4 149.1 1028.4 149.1L1029 149.1C1029.6 149.1 1030.65 149.1 1032.15 148.5C1034.25 147.6 1039.35 141.15 1039.35 138.15C1039.35 137.55 1039.05 137.1 1038.75 136.8C1038.45 136.65 1037.25 136.5 1035.3 136.5C1026 136.5 1000.05 138.6 981.6 139.95C983.7 137.4 985.5 135.45 986.55 134.4C992.7 129 994.5 129.9 997.65 127.35C998.4 126.75 998.85 125.55 998.85 124.2C998.85 120.75 996.15 116.25 991.35 116.25C990.9 116.25 990.45 116.25 990 116.4ZM1030.95 130.2L1032.15 130.2C1032.75 130.35 1033.35 130.35 1033.95 130.35C1035.9 130.35 1037.4 129.45 1037.85 125.55C1037.85 125.1 1038 124.5 1038 124.05C1038 119.85 1036.05 115.35 1032.6 115.35C1032 115.35 1031.25 115.5 1030.65 115.8C1025.4 117.9 1014 126.6 1005 138.45C996 150.3 961.8 192.6 960 197.25C959.7 198.15 959.55 198.9 959.55 199.65C959.55 203.1 962.25 205.95 964.95 205.95C965.25 205.95 965.55 205.8 965.85 205.8C969.75 204.9 1005.9 182.4 1009.95 179.85C1010.7 179.4 1011.45 179.1 1012.05 179.1C1013.7 179.1 1014.3 181.2 1014.3 184.95C1014.3 186.15 1014.3 187.5 1014.15 189C1014 190.05 1014 191.1 1014 192C1014 196.35 1015.05 198.45 1018.35 198.45C1019.4 198.45 1020.6 198.3 1021.95 197.85C1029 195.9 1052.85 179.1 1053.6 178.05C1053.75 177.9 1053.75 177.75 1053.75 177.6C1053.75 177.45 1053.75 177.45 1053.6 177.45C1053.45 177.45 1052.85 177.75 1052.1 178.2C1052.1 178.2 1031.55 190.8 1027.2 190.8C1026.9 190.8 1026.75 190.8 1026.6 190.65C1026.15 190.35 1026 189.75 1026 189C1026 186.3 1027.65 181.5 1027.65 177.9C1027.65 175.65 1027.05 173.85 1025.1 173.4C1023.75 172.95 1022.25 172.8 1020.75 172.8C1016.1 172.8 1010.7 175.05 1002.45 180.75C992.1 187.65 975.9 195.3 973.2 195.3L972.9 195.3L972.9 195.15C972.9 193.2 1000.65 160.05 1002.9 157.35C1007.55 152.4 1012.2 146.85 1020.45 137.7C1026.75 130.8 1029.3 130.2 1030.95 130.2Z" />
</svg>